# xmcd CD database file
#
# Track frame offsets:
#	150
#	17478
#	35797
#	54467
#	72241
#	91232
#	109972
#	125883
#	142143
#	160074
#	176412
#	192115
#	207864
#	225384
#	238754
#	254060
#	271378
#	288764
#	301301
#	316381
#	334912
#
# Disc length: 4743 seconds
#
# Revision: 11
# Processed by: cddbd v1.5.1PL2 Copyright (c) Steve Scherf et al.
# Submitted via: CDex 1.51
#
DISCID=37128515
DTITLE=Various Artist - TDR 23
DYEAR=2006
DGENRE=Country
TTITLE0=Faith Hill - Wish For You
TTITLE1=Rebecca Lynn Howard - No One'll Ever Love Me
TTITLE2=George Jones Ft. Dolly Parton - The Blues Man
TTITLE3=Lila McCann - I Can Do This
TTITLE4=Keith Urban - Making Memories Of Us
TTITLE5=Sugarland - Just Might (Make Me Believe)
TTITLE6=Jeff Carson Ft. Lisa Brokop - God Save the World
TTITLE7=Roxie Dean - A Soldier's Wife
TTITLE8=Jay Teter - Until You Find Your Mr. Right
TTITLE9=Tim Mcgraw - Walk Like A Man
TTITLE10=Reba Mcentire - Moving Oleta
TTITLE11=Zona Jones - Two Hearts
TTITLE12=Doug Stone - Everything
TTITLE13=Martina McBride - I Still Miss Someone
TTITLE14=Annie Sims - Dear Heartache (Album Version)
TTITLE15=Trisha Yearwood - Trying To Love You
TTITLE16=Lonestar - I Just Want To Love You
TTITLE17=Gretchen Wilson - I Don't Feel Like Loving You Today
TTITLE18=Catherine Britt and Elton John - Where We Both Say Goodbye
TTITLE19=Rascal Flatts - I'm Movin' On
TTITLE20=Western Flyer - What Will You Do With M-E
EXTD=YEAR: 2006
EXTT0=
EXTT1=
EXTT2=
EXTT3=
EXTT4=
EXTT5=
EXTT6=
EXTT7=
EXTT8=
EXTT9=
EXTT10=
EXTT11=
EXTT12=
EXTT13=
EXTT14=
EXTT15=
EXTT16=
EXTT17=
EXTT18=
EXTT19=
EXTT20=
PLAYORDER=
